<?xml version="1.0" encoding="iso-8859-1"?>
<!-- Uploaded to: SVG Repo, www.svgrepo.com, Generator: SVG Repo Mixer Tools -->
<svg height="800px" width="800px" version="1.1" id="Layer_1" xmlns="http://www.w3.org/2000/svg" xmlns:xlink="http://www.w3.org/1999/xlink" 
	 viewBox="0 0 512.002 512.002" xml:space="preserve">
<path style="fill:#EDBF00;" d="M511.572,338.056V206.147L302.905,43.656c-27.582-21.479-66.228-21.479-93.81,0L0.428,206.147
	v131.907L0,439.516l0.855,6.22c3.031,22.075,22.153,38.719,44.48,38.719h421.333c22.325,0,41.447-16.646,44.48-38.719l0.855-6.22
	L511.572,338.056z"/>
<path style="fill:#ECE5DD;" d="M389.053,84.743H122.947c-24.341,0-44.351,19.655-44.351,44.351v221.754h354.807V129.094
	C433.404,104.399,413.394,84.743,389.053,84.743z"/>
<path style="fill:#D9CBBD;" d="M399.586,86.013v200.31v64.527h33.818v-64.527V129.094C433.404,108.078,418.907,90.72,399.586,86.013
	z"/>
<g>
	<path style="fill:#BABABA;" d="M145.123,159.586h133.053c4.593,0,8.316-3.723,8.316-8.316s-3.723-8.316-8.316-8.316H145.123
		c-4.593,0-8.316,3.723-8.316,8.316S140.53,159.586,145.123,159.586z"/>
	<path style="fill:#BABABA;" d="M322.526,159.586h44.351c4.593,0,8.316-3.723,8.316-8.316s-3.723-8.316-8.316-8.316h-44.351
		c-4.593,0-8.316,3.723-8.316,8.316S317.934,159.586,322.526,159.586z"/>
	<path style="fill:#BABABA;" d="M145.123,203.936h66.526c4.593,0,8.316-3.723,8.316-8.316s-3.723-8.316-8.316-8.316h-66.526
		c-4.593,0-8.316,3.723-8.316,8.316S140.53,203.936,145.123,203.936z"/>
	<path style="fill:#BABABA;" d="M256,203.936h22.175c4.593,0,8.316-3.723,8.316-8.316s-3.723-8.316-8.316-8.316H256
		c-4.593,0-8.316,3.723-8.316,8.316S251.407,203.936,256,203.936z"/>
	<path style="fill:#BABABA;" d="M322.526,203.936h44.351c4.593,0,8.316-3.723,8.316-8.316s-3.723-8.316-8.316-8.316h-44.351
		c-4.593,0-8.316,3.723-8.316,8.316S317.934,203.936,322.526,203.936z"/>
	<path style="fill:#BABABA;" d="M366.877,231.656H256c-4.593,0-8.316,3.723-8.316,8.316s3.723,8.316,8.316,8.316h110.877
		c4.593,0,8.316-3.723,8.316-8.316S371.47,231.656,366.877,231.656z"/>
	<path style="fill:#BABABA;" d="M145.123,248.287h66.526c4.593,0,8.316-3.723,8.316-8.316s-3.723-8.316-8.316-8.316h-66.526
		c-4.593,0-8.316,3.723-8.316,8.316S140.53,248.287,145.123,248.287z"/>
</g>
<path style="fill:#FEDA44;" d="M275.029,317.577c-5.762-3.433-12.341-5.247-19.029-5.247c-6.65,0-13.191,1.794-19.015,5.24
	L0,439.516l0.855,6.22c3.031,22.075,22.153,38.719,44.48,38.719h421.333c22.325,0,41.447-16.646,44.48-38.719l0.855-6.22
	L275.029,317.577z"/>
<g>
	<polygon style="fill:#FFCE00;" points="0.428,206.147 192.911,341.506 0.428,440.541 	"/>
	<polygon style="fill:#FFCE00;" points="511.572,206.147 319.09,341.506 511.572,440.541 	"/>
</g>
<polygon style="fill:#EDBF00;" points="477.754,423.141 511.572,440.541 511.572,436.517 511.572,214.775 511.572,206.147 
	477.754,229.929 "/>
<path style="fill:#FFCE00;" d="M512,439.516l-34.254-17.596v14.622v46.529c17.295-4.443,30.877-19.004,33.392-37.309l0.426-3.102
	L512,439.516z"/>
</svg>